<?xml version="1.0" encoding="UTF-8" standalone="no"?>
<svg
   width="1197.3196"
   height="1217.2732"
   viewBox="0 0 1197.3197 1217.2731"
   version="1.1"
   id="svg4"
   sodipodi:docname="icon-empty.svg"
   inkscape:version="1.4.3 (fcd0343856, 2026-01-01)"
   xmlns:inkscape="http://www.inkscape.org/namespaces/inkscape"
   xmlns:sodipodi="http://sodipodi.sourceforge.net/DTD/sodipodi-0.dtd"
   xmlns="http://www.w3.org/2000/svg"
   xmlns:svg="http://www.w3.org/2000/svg">
  <defs
     id="defs4" />
  <sodipodi:namedview
     id="namedview4"
     pagecolor="#ffffff"
     bordercolor="#999999"
     borderopacity="1"
     inkscape:showpageshadow="0"
     inkscape:pageopacity="0"
     inkscape:pagecheckerboard="0"
     inkscape:deskcolor="#d1d1d1"
     showgrid="false"
     inkscape:zoom="0.35558183"
     inkscape:cx="461.21592"
     inkscape:cy="763.53733"
     inkscape:window-width="1854"
     inkscape:window-height="1011"
     inkscape:window-x="0"
     inkscape:window-y="0"
     inkscape:window-maximized="1"
     inkscape:current-layer="svg4" />
  <path
     id="path5"
     style="fill:#ffe88d;fill-opacity:0.587679;stroke:none;stroke-width:1.06525px;stroke-linecap:butt;stroke-linejoin:miter;stroke-opacity:1"
     d="M 696.20645,169.84882 C 435.88651,163.63073 98.351499,614.17042 156.72403,862.51289 225.28354,1154.1953 1017.4938,1106.034 1037.7396,915.04804 1057.9855,724.062 1085.2838,459.12921 829.88028,224.47969 c -39.9068,-36.664 -85.46643,-53.47937 -133.67383,-54.63087 z m -11.5039,133.01758 c 36.45077,0.87068 70.89972,13.58607 101.07422,41.30859 193.11679,177.42416 172.47637,377.74515 157.16797,522.1543 C 927.63642,1010.7384 328.62602,1047.1547 276.78653,826.60664 232.64966,638.82892 487.86838,298.16475 684.70255,302.8664 Z" />
  <path
     id="path5-6"
     style="fill:#ffe88d;fill-opacity:0.587679;stroke:none;stroke-width:1.20834px;stroke-linecap:butt;stroke-linejoin:miter;stroke-opacity:1"
     d="M 708.22314,105.17526 C 415.36562,98.063388 35.641852,613.36338 101.31041,897.40246 178.43923,1231.0112 1069.6684,1175.9272 1092.4448,957.48898 1115.2211,739.05072 1145.9315,436.03664 858.60496,167.65873 813.71018,125.72468 762.45602,106.49228 708.22314,105.17526 Z m -12.94178,152.13745 c 41.00678,0.99583 79.76153,15.53892 113.70756,47.24626 217.25458,202.927 194.03428,432.04202 176.81251,597.20845 C 968.57971,1066.9339 294.69856,1108.5846 236.37962,856.33506 186.72605,641.56628 473.84474,251.93525 695.28136,257.31271 Z" />
  <path
     id="path5-6-56"
     style="fill:#ffffff;fill-opacity:1;stroke:none;stroke-width:1.42892px;stroke-linecap:butt;stroke-linejoin:miter;stroke-opacity:1"
     d="M 726.5608,0.08615176 C 380.24288,-8.3239713 -68.798505,601.04273 8.8576808,936.93244 100.06617,1331.4406 1153.9869,1266.3012 1180.9211,1007.9875 1207.8552,749.67399 1244.1717,391.34544 904.39445,73.975825 851.30425,24.386815 790.69377,1.6435908 726.5608,0.08615176 Z M 711.25654,179.99591 c 48.49246,1.17761 94.32179,18.37551 134.46459,55.87095 C 1102.635,475.83767 1075.1757,746.77706 1054.8101,942.09421 1034.4447,1137.4114 237.54835,1186.6653 168.58344,888.36828 109.86573,634.394 449.39722,173.63681 711.25654,179.99591 Z" />
  <path
     id="path5-6-5"
     style="fill:#ffffff;fill-opacity:0;stroke:none;stroke-width:1.39981px;stroke-linecap:butt;stroke-linejoin:miter;stroke-opacity:1"
     d="M 725.36169,23.630331 C 386.09805,15.391521 -53.796662,612.34583 22.277728,941.39367 111.62835,1327.8659 1144.0814,1264.0533 1170.467,1011.0015 1196.8524,757.94955 1232.4292,406.91993 899.57298,96.014918 847.56418,47.436008 788.1883,25.156047 725.36169,23.630331 Z M 710.36916,199.87545 c 47.50471,1.15363 92.40052,18.00121 131.72563,54.73289 251.68061,235.08277 224.78091,500.5033 204.83011,691.84196 -19.9507,191.3386 -800.61479,239.5893 -868.17493,-52.63156 C 121.22831,645.01775 453.84375,193.64588 710.36916,199.87545 Z" />
  <text
     xml:space="preserve"
     style="font-size:93.3332px;line-height:1.25;font-family:Somedays;-inkscape-font-specification:'Somedays, Normal';text-align:center;text-anchor:middle"
     x="146.15201"
     y="-156.6982"
     id="text1"><tspan
       sodipodi:role="line"
       id="tspan1"
       x="146.15201"
       y="-156.6982" /></text>
</svg>
